<?xml version="1.0" standalone="no"?>
<!DOCTYPE svg PUBLIC "-//W3C//DTD SVG 20010904//EN"
 "http://www.w3.org/TR/2001/REC-SVG-20010904/DTD/svg10.dtd">
<svg version="1.0" xmlns="http://www.w3.org/2000/svg"
 width="1100.000000pt" height="1100.000000pt" viewBox="0 0 1100.000000 1100.000000"
 preserveAspectRatio="xMidYMid meet">
<metadata>
Created by potrace 1.16, written by Peter Selinger 2001-2019
</metadata>
<g transform="translate(0.000000,1100.000000) scale(0.100000,-0.100000)"
fill="#000000" stroke="none">
<path d="M4885 8310 c-21 -11 -46 -20 -55 -20 -16 0 -141 -28 -285 -65 -122
-32 -264 -83 -399 -145 l-38 -18 39 -29 c22 -15 85 -59 140 -98 l101 -70 52
-105 c117 -237 294 -507 425 -648 93 -101 138 -113 169 -47 38 80 86 354 86
491 0 109 4 117 89 173 133 87 293 268 348 392 23 53 35 49 28 -8 -6 -56 -51
-548 -65 -713 -16 -190 -49 -532 -52 -535 -2 -1 -43 -7 -93 -13 -98 -13 -286
-57 -405 -95 -194 -63 -470 -187 -617 -278 -181 -113 -388 -303 -483 -444
l-51 -76 -117 62 c-64 34 -139 74 -167 89 -27 15 -147 78 -265 140 -118 63
-255 135 -305 162 -49 26 -136 72 -192 101 -57 28 -103 55 -103 60 0 4 42 4
93 1 153 -11 403 40 512 105 l34 20 113 -65 c184 -104 403 -194 474 -194 37 0
54 21 54 67 0 30 -30 155 -56 233 -52 153 -203 470 -292 611 l-42 66 -6 204
c-6 197 -14 279 -14 148 0 -63 -1 -64 -43 -99 -65 -53 -358 -346 -396 -396
-18 -24 -38 -44 -43 -44 -18 0 -158 -73 -158 -82 0 -5 24 4 53 20 28 16 63 33
76 37 21 6 19 2 -15 -43 -83 -108 -193 -279 -194 -299 0 -7 -3 -13 -8 -13 -4
0 -27 -40 -51 -90 -43 -88 -43 -89 -66 -74 -13 8 -33 34 -44 57 -11 23 -20 36
-21 29 0 -20 26 -65 53 -90 20 -19 23 -29 18 -50 -6 -21 -14 -28 -39 -30 -34
-3 -43 -19 -17 -28 19 -8 19 -37 1 -72 -47 -91 -116 -367 -153 -607 -26 -170
-26 -608 0 -780 42 -279 120 -568 197 -724 104 -212 114 -232 170 -323 11 -18
27 -46 36 -62 29 -52 181 -252 252 -333 123 -138 242 -253 367 -353 44 -35 82
-67 85 -70 3 -4 61 -45 130 -92 110 -74 163 -106 260 -158 14 -7 32 -17 40
-22 8 -4 26 -13 40 -19 14 -6 34 -16 45 -22 35 -18 49 -24 105 -47 30 -12 71
-29 90 -37 19 -9 49 -19 65 -23 17 -4 50 -15 75 -24 131 -45 319 -86 515 -113
182 -25 596 -25 785 0 133 17 289 47 383 73 46 13 50 12 87 -12 69 -46 61 -21
-19 61 -137 141 -223 269 -276 410 -15 39 -30 75 -35 80 -13 16 -98 276 -130
401 -82 311 -110 548 -110 917 0 338 -30 520 -112 682 -121 238 -294 180 -392
-133 -53 -169 -77 -427 -57 -622 5 -57 8 -107 5 -109 -8 -8 -49 48 -88 120
-66 124 -98 232 -117 401 -21 185 13 400 92 567 118 252 343 448 568 496 95
20 263 19 354 -1 307 -69 574 -376 643 -741 28 -149 22 -414 -14 -583 -34
-164 -47 -298 -46 -490 2 -348 65 -736 186 -1145 25 -85 27 -88 41 -77 7 5 44
27 82 48 80 43 268 169 335 224 76 62 74 62 67 -16 -3 -38 -9 -85 -12 -104 -5
-29 -4 -32 5 -17 6 10 14 61 17 112 6 88 8 96 32 112 43 27 312 301 393 399
41 50 93 118 114 150 21 33 41 61 44 64 4 3 15 20 25 38 17 28 24 32 62 32 32
0 43 4 43 15 0 11 -11 15 -35 15 l-36 0 19 28 c32 45 55 85 79 133 22 44 25
46 65 45 24 -1 43 4 45 12 3 8 -8 12 -37 12 l-41 0 14 28 c31 59 57 120 57
134 0 8 4 18 9 23 8 9 52 134 86 245 33 110 95 468 95 553 0 26 3 47 8 47 21
-1 204 -267 253 -367 23 -49 29 -51 47 -23 10 16 9 35 -3 98 -29 143 -99 338
-127 353 -24 13 -23 2 3 -58 48 -112 105 -313 88 -313 -5 0 -9 4 -9 9 0 17
-123 196 -191 279 -59 71 -69 89 -69 121 0 34 -9 48 -85 128 -247 263 -579
475 -920 588 -204 68 -383 101 -628 117 -184 12 -447 2 -567 -22 -170 -34
-213 -44 -290 -66 -376 -110 -663 -281 -958 -568 -225 -220 -351 -413 -458
-701 l-22 -60 -101 -26 c-188 -49 -381 -131 -528 -225 -38 -24 -54 -30 -60
-21 -14 21 -16 246 -3 344 38 300 195 710 353 917 90 119 108 139 249 294 69
77 68 80 -3 32 -101 -68 -217 -164 -326 -269 -24 -24 -26 -3 -2 31 207 299
660 595 1184 773 44 14 89 30 100 35 11 4 49 16 85 25 78 21 154 42 195 55 17
5 41 11 55 14 14 3 79 16 145 30 291 60 581 84 813 66 337 -25 561 -95 683
-212 41 -40 51 -65 22 -54 -44 17 -200 46 -307 56 -137 13 -180 0 -59 -18 197
-31 458 -137 648 -265 279 -188 571 -488 739 -759 26 -43 49 -78 50 -78 0 0 0
21 -2 48 l-3 47 51 -85 c43 -74 50 -81 50 -55 0 18 -19 62 -48 110 -45 76 -49
87 -66 210 -10 72 -22 153 -26 180 -20 132 -76 337 -132 480 -54 137 -173 374
-207 412 -6 7 -11 15 -11 18 0 6 -51 86 -60 95 -3 3 -22 30 -42 61 -102 156
-392 462 -574 605 -132 103 -203 154 -215 154 -5 0 -9 4 -9 8 0 5 -15 16 -32
25 -18 10 -53 31 -78 47 -40 26 -259 137 -335 170 -210 90 -468 159 -735 196
-218 30 -715 29 -822 -2 -10 -3 -18 2 -20 11 -3 14 -8 13 -43 -5z m676 -27
c10 -10 10 -24 0 -65 -30 -121 -95 -222 -214 -335 -115 -109 -128 -115 -317
-147 -152 -26 -375 -82 -420 -106 -10 -5 -30 -10 -43 -10 -22 0 -30 14 -78
131 l-54 131 -118 79 c-65 44 -115 84 -111 90 16 26 284 122 454 162 170 40
268 56 480 81 19 2 119 3 222 2 134 -1 191 -5 199 -13z m273 -29 c974 -187
1746 -820 2106 -1724 82 -205 160 -508 160 -618 l0 -35 -72 79 c-166 181 -314
318 -454 420 -125 90 -137 101 -161 149 -180 357 -481 684 -830 898 -287 176
-541 266 -930 327 -67 11 -73 14 -69 33 18 94 28 244 24 362 l-6 138 76 -7
c41 -3 111 -13 156 -22z m-2310 -733 l-7 -100 102 -176 c55 -96 101 -180 101
-186 0 -6 -37 -56 -83 -112 -46 -56 -109 -140 -141 -187 -32 -47 -62 -89 -66
-93 -5 -5 -33 7 -63 26 l-55 36 -39 -20 c-64 -33 -174 -70 -258 -86 -82 -15
-209 -13 -227 5 -13 13 119 268 204 398 82 125 217 295 312 394 98 102 205
200 217 200 6 0 8 -35 3 -99z m-294 -1280 c0 -4 -11 -44 -24 -89 -103 -344
-124 -722 -60 -1072 104 -564 420 -1071 879 -1410 403 -298 863 -450 1360
-450 83 0 202 7 265 15 63 9 138 18 166 21 l52 7 12 -39 c34 -104 107 -222
204 -329 25 -27 46 -53 46 -56 0 -17 -156 -58 -335 -88 -453 -75 -899 -39
-1345 109 -536 177 -1011 520 -1350 975 -114 153 -157 221 -238 376 -320 607
-403 1307 -237 1973 29 114 71 248 91 288 l14 27 250 -125 c137 -69 250 -128
250 -133z m4469 -391 c107 -57 339 -242 399 -319 l39 -49 -4 -99 c-5 -106 -29
-323 -43 -388 -5 -22 -19 -83 -30 -135 -46 -202 -117 -394 -242 -645 -75 -152
-219 -366 -352 -525 -95 -112 -416 -410 -443 -410 -5 0 -18 -9 -28 -20 -36
-40 -260 -179 -270 -168 -11 11 -65 131 -78 173 -24 77 -39 184 -35 250 l3 59
55 38 c63 43 79 55 215 170 249 211 467 514 598 828 122 296 176 562 177 875
0 118 -15 325 -26 371 -8 31 -3 30 65 -6z"/>
<path d="M3829 7853 c-17 -52 -14 -170 5 -238 43 -148 154 -293 266 -347 93
-44 97 -45 109 -1 6 21 11 72 11 114 0 127 -55 257 -154 365 -60 67 -112 103
-183 128 l-42 15 -12 -36z"/>
<path d="M8590 4742 c0 -4 7 -39 15 -77 34 -162 11 -311 -64 -416 -61 -86
-147 -141 -270 -175 -61 -17 -91 -44 -48 -44 72 0 211 66 285 135 100 92 142
200 142 360 0 80 -4 110 -25 203 -5 20 -35 33 -35 14z"/>
</g>
</svg>
