<?xml version="1.0" standalone="no"?>
<!DOCTYPE svg PUBLIC "-//W3C//DTD SVG 20010904//EN"
 "http://www.w3.org/TR/2001/REC-SVG-20010904/DTD/svg10.dtd">
<svg version="1.0" xmlns="http://www.w3.org/2000/svg"
 width="128.000000pt" height="128.000000pt" viewBox="0 0 128.000000 128.000000"
 preserveAspectRatio="xMidYMid meet">

<g transform="translate(0.000000,128.000000) scale(0.100000,-0.100000)"
fill="#000000" stroke="none">
<path d="M910 1166 c0 -3 9 -10 20 -16 11 -6 20 -8 20 -6 0 3 -9 10 -20 16
-11 6 -20 8 -20 6z"/>
<path d="M320 1116 c0 -38 45 -106 70 -106 15 0 12 47 -5 79 -19 38 -65 57
-65 27z"/>
<path d="M990 1116 c0 -2 8 -10 18 -17 15 -13 16 -12 3 4 -13 16 -21 21 -21
13z"/>
<path d="M533 1097 c-23 -7 -45 -15 -48 -19 -9 -9 26 -66 58 -96 30 -29 37
-21 44 56 3 31 11 60 17 64 16 11 -22 8 -71 -5z"/>
<path d="M686 1083 c-2 -16 -8 -59 -11 -97 l-7 -69 34 7 c133 24 250 16 308
-21 19 -13 21 -17 9 -22 -11 -4 -2 -12 27 -27 l42 -20 -38 55 c-71 105 -169
176 -285 207 -68 19 -73 18 -79 -13z"/>
<path d="M1070 1045 c85 -101 161 -263 147 -314 -2 -10 2 -26 10 -37 14 -17
14 -13 8 41 -13 109 -65 212 -155 306 l-52 54 42 -50z"/>
<path d="M272 924 l-33 -45 46 -20 c25 -11 49 -17 55 -14 5 3 4 23 -4 48 -23
78 -27 80 -64 31z"/>
<path d="M120 930 c-6 -11 -8 -20 -6 -20 3 0 10 9 16 20 6 11 8 20 6 20 -3 0
-10 -9 -16 -20z"/>
<path d="M570 901 c-87 -28 -154 -66 -205 -117 l-47 -47 -55 27 c-44 22 -58
24 -64 14 -15 -24 -22 -99 -16 -184 10 -164 106 -303 259 -378 83 -40 177 -59
256 -49 48 5 53 8 48 27 -32 109 -38 145 -42 236 -5 116 -19 177 -44 190 -36
19 -60 -27 -69 -129 l-7 -76 -19 35 c-14 25 -19 54 -19 100 0 73 18 117 68
164 l31 30 -34 -20 c-53 -30 -135 -118 -162 -173 -19 -41 -31 -53 -59 -62 -19
-7 -51 -20 -72 -30 -33 -17 -37 -17 -42 -2 -9 21 11 124 33 176 10 23 35 65
56 92 35 47 36 48 6 21 -17 -16 -33 -27 -36 -24 -3 3 17 26 44 51 53 50 122
88 221 123 76 26 50 31 -30 5z"/>
<path d="M96 885 c-3 -8 -1 -15 4 -15 6 0 10 7 10 15 0 8 -2 15 -4 15 -2 0 -6
-7 -10 -15z"/>
<path d="M61 784 c0 -11 3 -14 6 -6 3 7 2 16 -1 19 -3 4 -6 -2 -5 -13z"/>
<path d="M721 774 c-56 -17 -67 -28 -20 -19 49 9 118 -21 151 -66 41 -55 52
-102 42 -188 -11 -96 -9 -228 5 -261 5 -14 10 -18 10 -10 1 8 17 26 37 39 51
35 99 98 133 172 33 75 40 106 42 214 l2 80 -69 27 c-61 24 -82 27 -179 27
-64 -1 -128 -7 -154 -15z"/>
<path d="M52 730 c0 -19 2 -27 5 -17 2 9 2 25 0 35 -3 9 -5 1 -5 -18z"/>
<path d="M1185 680 c10 -11 20 -20 23 -20 3 0 -3 9 -13 20 -10 11 -20 20 -23
20 -3 0 3 -9 13 -20z"/>
<path d="M42 640 c0 -19 2 -27 5 -17 2 9 2 25 0 35 -3 9 -5 1 -5 -18z"/>
<path d="M1223 588 c-5 -144 -95 -314 -214 -405 -53 -40 -62 -50 -27 -32 52
28 164 155 201 229 43 86 75 236 54 257 -9 9 -12 -2 -14 -49z"/>
<path d="M52 550 c0 -19 2 -27 5 -17 2 9 2 25 0 35 -3 9 -5 1 -5 -18z"/>
<path d="M61 494 c0 -11 3 -14 6 -6 3 7 2 16 -1 19 -3 4 -6 -2 -5 -13z"/>
<path d="M71 468 c-1 -12 31 -89 35 -85 3 2 -4 24 -15 48 -11 24 -20 41 -20
37z"/>
<path d="M120 350 c6 -11 13 -20 16 -20 2 0 0 9 -6 20 -6 11 -13 20 -16 20 -2
0 0 -9 6 -20z"/>
<path d="M170 276 c0 -2 8 -10 18 -17 15 -13 16 -12 3 4 -13 16 -21 21 -21 13z"/>
<path d="M920 128 c0 -4 4 -8 9 -8 6 0 12 4 15 8 3 5 -1 9 -9 9 -8 0 -15 -4
-15 -9z"/>
</g>
</svg>
